<svg aria-labelledby="logoTitle" id="blue_logo" class="logo_svg" xmlns="http://www.w3.org/2000/svg" viewBox="0 0 687.74 249.56">
	<title id="logoTitle">Teaching Further Education</title>
	<defs>
		<style>.cls-1{fill:#4D64FF;}</style>
	</defs>
	<g>
		<path d="M551.61,7.78V143.9h136.13V7.78h-136.13Zm14.4,121.73V22.17h107.33s0,107.34,0,107.34h-107.33Z"></path>
		<polygon points="0 135.34 0 143.89 524.49 143.89 524.49 135.34 524.49 126.77 0 126.77 0 135.34"></polygon>
		<polygon points="27.01 95.22 44.93 95.22 44.93 16.58 71.01 16.58 71.01 0 .93 0 .93 16.58 27.01 16.58 27.01 95.22"></polygon>
		<path d="M100.02,96.82c18.45,0,28.22-8.82,33.3-16.58l-13.77-8.02c-1.61,2.27-6.69,9.63-19.52,9.63-8.83,0-17.25-6.55-17.52-16.58h50.01c0-24.2-9.89-39.32-32.49-39.32s-34.64,15.25-34.64,35.44,12.7,35.44,34.64,35.44Zm0-57.51c10.97,0,15.38,9.76,15.38,13.38h-32.9c1.74-7.23,8.02-13.38,17.52-13.38Z"></path>
		<path d="M167.02,53.09l-6.82,1.34c-10.03,2.01-20.6,7.89-20.6,21.13s10.16,21.26,23,21.26c8.43,0,15.78-2.68,22.07-7.76,0,1.74,.54,4.55,1.61,6.15h17.25c-.94-1.47-2.54-4.41-2.54-11.37V48.14c0-19.26-14.58-22.2-29.15-22.2s-28.89,6.15-28.89,22.06l16.31,.67c0-7.36,3.08-10.17,12.57-10.17,7.09,0,12.84,1.87,12.84,8.56v2.01c-4.14,1.47-11.77,2.81-17.65,4.01Zm17.65,17.92c0,8.69-9.76,12.44-17.38,12.44-5.88,0-10.57-3.35-10.57-8.43,0-6.42,5.08-8.02,11.24-9.36l8.96-1.87c2.94-.67,5.62-1.34,7.76-2.41v9.63Z"></path>
		<path d="M244.57,96.82c18.32,0,26.08-10.83,30.62-20.73l-13.91-7.35c-2.54,6.15-6.69,13.11-16.45,13.11-11.37,0-16.58-9.9-16.58-20.46s5.89-20.46,17.52-20.46c6.42,0,12.17,4.15,14.31,10.83l14.31-6.55c-4.14-10.16-12.17-19.25-28.62-19.25-21.93,0-34.63,15.24-34.63,35.44s12.7,35.44,33.43,35.44Z"></path>
		<path d="M300.6,60.45c0-8.29,3.74-18.72,16.05-18.72,8.29,0,12.04,4.01,12.04,13.37v40.12h16.31V50.42c0-19.66-13.24-24.47-24.74-24.47-9.23,0-15.78,3.61-19.39,8.29h-.26V0h-16.32V95.22h16.32V60.45Z"></path>
		<rect x="359.83" y="27.55" width="16.32" height="67.67"></rect>
		<rect x="359.83" y="0" width="16.32" height="16.58"></rect>
		<path d="M407.31,59.51c0-12.43,6.55-17.78,14.44-17.78,8.42,0,11.23,6.02,11.23,12.17v41.32h16.31V48.95c0-14.84-7.22-23-23.27-23-6.55,0-13.64,2.41-18.46,8.29h-.26v-6.68h-16.32V95.22h16.32V59.51Z"></path>
		<path d="M508.93,34.1h-.27c-4.01-4.81-9.23-8.16-18.99-8.16-16.85,0-29.42,12.57-29.42,32.9s12.57,32.9,29.42,32.9c5.88,0,14.04-1.87,19.26-7.49v7.22c0,8.29-4.82,13.64-15.38,13.64-8.15,0-12.7-3.74-13.91-8.42h-17.12c0,8.42,6.15,20.99,27.55,20.99s35.17-4.68,35.17-23.94V27.55h-16.32v6.55Zm-15.51,42.66c-12.31,0-16.05-10.7-16.05-17.92s3.74-17.92,16.05-17.92,16.05,10.7,16.05,17.92-3.74,17.92-16.05,17.92Z"></path>
	</g>
	<g>
		<polygon class="cls-1" points="660.4 53.05 650.21 42.87 604.58 88.51 589.3 73.24 579.12 83.42 604.58 108.87 660.4 53.05"></polygon>
		<polygon class="cls-1" points="135.2 248.62 140.5 248.62 140.5 221.37 168.05 221.37 168.05 216.55 140.5 216.55 140.5 198.01 171.33 198.01 171.33 193.19 135.2 193.19 135.2 248.62"></polygon>
		<path class="cls-1" d="M200.84,233.05c0,8.41-5.06,12.15-10.67,12.15-5.92,0-9.11-2.49-9.11-10.04v-23.9h-4.67v25.31c0,7.71,3.97,13,13.16,13,4.36,0,8.79-1.72,11.13-6.39h.16v5.45h4.67v-37.37h-4.67v21.8Z"></path>
		<path class="cls-1" d="M220.15,216.47h-.16v-5.22h-4.67v37.37h4.67v-21.49c0-7.63,3.27-12.92,10.51-12.92,1.01,0,2.02,.08,3.11,.31v-4.05c-1.17-.08-2.1-.16-3.35-.16-4.83,0-7.55,2.26-10.12,6.15Z"></path>
		<path class="cls-1" d="M248.65,195.29h-4.67v15.96h-7.63v3.89h7.63v27.8c0,4.9,3.03,6.62,6.39,6.62,1.87,0,3.89-.55,6.15-1.56v-4.67c-1.55,1.01-2.96,1.87-5.14,1.87-2.65,0-2.72-2.57-2.72-5.37v-24.68h8.1v-3.89h-8.1v-15.96Z"></path>
		<path class="cls-1" d="M278.24,210.32c-4.36,0-8.8,1.71-11.13,6.46h-.16v-23.59h-4.67v55.43h4.67v-21.8c0-8.41,5.06-12.15,10.67-12.15,5.92,0,9.11,2.49,9.11,10.05v23.9h4.67v-25.31c0-7.71-3.97-13-13.16-13Z"></path>
		<path class="cls-1" d="M332.67,229.78c-.39-11.05-5.84-19.46-16.9-19.46-9.34,0-16.89,6.85-16.89,19.62s7.55,19.62,16.89,19.62c8.26,0,14.09-4.21,16.9-11.14l-4.36-1.17c-2.26,4.98-5.68,7.94-12.14,7.94-8.33,0-11.99-6.08-11.99-14.41v-1.01h28.5Zm-16.9-15.1c7.78,0,10.59,5.76,11.6,11.21h-23.2c.78-6.23,4.98-11.21,11.6-11.21Z"></path>
		<path class="cls-1" d="M345.13,216.47h-.16v-5.22h-4.67v37.37h4.67v-21.49c0-7.63,3.27-12.92,10.51-12.92,1.01,0,2.02,.08,3.11,.31v-4.05c-1.17-.08-2.1-.16-3.35-.16-4.83,0-7.55,2.26-10.12,6.15Z"></path>
		<polygon class="cls-1" points="391.31 222.46 419.26 222.46 419.26 217.63 391.31 217.63 391.31 198.01 422.29 198.01 422.29 193.19 386.01 193.19 386.01 248.62 423.93 248.62 423.93 243.79 391.31 243.79 391.31 222.46"></polygon>
		<path class="cls-1" d="M455.31,216.16h-.16c-2.26-3.66-5.76-5.84-10.98-5.84-8.57,0-15.65,7.01-15.65,20.09,0,13.86,8.72,19.15,15.73,19.15,4.29,0,8.72-1.56,10.9-6h.16v5.06h4.67v-55.43h-4.67v22.97Zm-10.82,29.04c-6.69,0-11.29-5.84-11.29-15.26s4.59-15.26,11.6-15.26c8.88,0,10.75,7.94,10.75,15.26s-2.34,15.26-11.06,15.26Z"></path>
		<path class="cls-1" d="M493.86,233.05c0,8.41-5.06,12.15-10.67,12.15-5.92,0-9.11-2.49-9.11-10.04v-23.9h-4.67v25.31c0,7.71,3.97,13,13.16,13,4.36,0,8.79-1.72,11.13-6.39h.16v5.45h4.67v-37.37h-4.67v21.8Z"></path>
		<path class="cls-1" d="M523.29,214.68c4.44,0,8.41,1.71,10.28,5.84l4.75-.93c-3.35-7.39-9.73-9.27-14.4-9.27-10.74,0-17.98,7.86-17.98,19.62s7.55,19.62,16.89,19.62c6.85,0,12.3-3.11,15.03-9.27l-4.75-1.17c-1.63,3.43-5.37,6.08-10.28,6.08-5.92,0-12.22-4.98-12.22-15.26s6.31-15.26,12.69-15.26Z"></path>
		<path class="cls-1" d="M572.26,240.29v-18.29c0-3.66,0-11.68-13.86-11.68-8.33,0-13.16,3.97-14.72,11.99l5.29,.93c.16-5.99,3.04-9.03,9.27-9.03s9.34,2.03,9.34,6.85v3.74l-11.45,2.96c-6.46,1.63-13.39,3.97-13.39,11.91,0,6.85,5.84,9.89,11.91,9.89,5.68,0,10.2-1.95,13.08-7.01h.16c.47,6.54,3.97,6.54,9.73,6.54v-3.89c-3.19,0-5.37-.08-5.37-4.9Zm-4.67-7.16c0,9.03-8.02,12.07-12.54,12.07-3.5,0-7.63-1.48-7.63-5.61s2.96-5.99,6.69-7.01l13.47-3.74v4.28Z"></path>
		<path class="cls-1" d="M589.95,195.29h-4.67v15.96h-7.63v3.89h7.63v27.8c0,4.9,3.03,6.62,6.39,6.62,1.87,0,3.89-.55,6.15-1.56v-4.67c-1.55,1.01-2.96,1.87-5.14,1.87-2.65,0-2.72-2.57-2.72-5.37v-24.68h8.1v-3.89h-8.1v-15.96Z"></path>
		<rect class="cls-1" x="603.57" y="195.83" width="4.67" height="7.32"></rect>
		<rect class="cls-1" x="603.57" y="211.25" width="4.67" height="37.37"></rect>
		<path class="cls-1" d="M632.62,210.32c-9.34,0-16.89,6.85-16.89,19.62s7.55,19.62,16.89,19.62,16.89-6.85,16.89-19.62-7.55-19.62-16.89-19.62Zm0,34.88c-6.93,0-12.23-5.6-12.23-15.26s5.3-15.26,12.23-15.26,12.22,5.68,12.22,15.26-5.29,15.26-12.22,15.26Z"></path>
		<path class="cls-1" d="M672.87,210.32c-4.36,0-8.8,1.71-11.13,6.38h-.16v-5.45h-4.67v37.37h4.67v-21.8c0-8.41,5.06-12.15,10.67-12.15,5.92,0,9.11,2.49,9.11,10.04v23.9h4.67v-25.3c0-7.71-3.97-13-13.16-13Z"></path>
	</g>
</svg>